<svg xmlns:dc="http://purl.org/dc/elements/1.1/" xmlns:cc="http://creativecommons.org/ns#" xmlns:rdf="http://www.w3.org/1999/02/22-rdf-syntax-ns#" xmlns:svg="http://www.w3.org/2000/svg" xmlns="http://www.w3.org/2000/svg" xmlns:sodipodi="http://sodipodi.sourceforge.net/DTD/sodipodi-0.dtd" xmlns:inkscape="http://www.inkscape.org/namespaces/inkscape" version="1.1" x="0px" y="0px" viewBox="0 0 100 125"><g transform="translate(0,-952.36218)"><path style="text-indent:0;text-transform:none;direction:ltr;block-progression:tb;baseline-shift:baseline;color:#000000;enable-background:accumulate;" d="m 41.0017,961.36218 c -17.6146,0 -32.0016999,14.38139 -32.0016999,31.98953 0,17.60799 14.3869999,31.98949 32.0016999,31.98949 7.0044,0 13.5002,-2.2762 18.7821,-6.123 l 22.6888,22.6801 c 1.9524,1.9518 5.1103,1.9519 7.0628,0 1.9528,-1.9518 1.9528,-5.1395 0,-7.0914 L 66.878,1012.1581 c 3.8572,-5.2837 6.1253,-11.7956 6.1253,-18.80639 0,-17.60814 -14.387,-31.98953 -32.0016,-31.98953 z m 0,9.99673 c 12.2099,0 22.0011,9.78739 22.0011,21.9928 0,12.20529 -9.7913,21.99279 -22.0011,21.99279 -12.2099,0 -22.0012,-9.7875 -22.0012,-21.99279 0,-12.20541 9.7912,-21.9928 22.0012,-21.9928 z" fill="#000000" fill-opacity="1" stroke="none" marker="none" visibility="visible" display="inline" overflow="visible"/></g><text x="0" y="115" fill="#000000" font-size="5px" font-weight="bold" font-family="'Helvetica Neue', Helvetica, Arial-Unicode, Arial, Sans-serif">Created by arjuazka</text><text x="0" y="120" fill="#000000" font-size="5px" font-weight="bold" font-family="'Helvetica Neue', Helvetica, Arial-Unicode, Arial, Sans-serif">from the Noun Project</text></svg>