<svg xmlns="http://www.w3.org/2000/svg" xmlns:xlink="http://www.w3.org/1999/xlink" version="1.1" x="0px" y="0px" viewBox="0 0 100 125" style="enable-background:new 0 0 100 100;" xml:space="preserve"><g><path d="M50,16.2c-18.7,0-33.8,15.2-33.8,33.8c0,18.7,15.2,33.8,33.8,33.8c18.7,0,33.8-15.2,33.8-33.8C83.8,31.3,68.7,16.2,50,16.2   z M50,79c-16,0-29-13-29-29s13-29,29-29s29,13,29,29S66,79,50,79z"/><g><path d="M61.8,58.1c0.9,1,0.9,2.5,0,3.4c-0.5,0.5-1.1,0.7-1.7,0.7s-1.2-0.2-1.7-0.7l-8.1-8.1l-8.1,8.1c-0.5,0.5-1.1,0.7-1.7,0.7    s-1.2-0.2-1.7-0.7c-1-1-1-2.5,0-3.4l8.1-8.1l-8.1-8.1c-1-1-1-2.5,0-3.4c0.9-0.9,2.5-0.9,3.4,0l8.1,8.1l8.1-8.1c0.9-1,2.5-1,3.4,0    c0.9,0.9,0.9,2.5,0,3.4L53.7,50L61.8,58.1z"/></g></g><text x="0" y="115" fill="#000000" font-size="5px" font-weight="bold" font-family="'Helvetica Neue', Helvetica, Arial-Unicode, Arial, Sans-serif">Created by Shiva</text><text x="0" y="120" fill="#000000" font-size="5px" font-weight="bold" font-family="'Helvetica Neue', Helvetica, Arial-Unicode, Arial, Sans-serif">from the Noun Project</text></svg>