<svg xmlns="http://www.w3.org/2000/svg" xmlns:xlink="http://www.w3.org/1999/xlink" version="1.1" x="0px" y="0px" viewBox="0 0 512 640" style="enable-background:new 0 0 512 512;" xml:space="preserve"><path d="M448,408V40c0-13.2-10.8-24-24-24H88c-13.2,0-24,10.8-24,24v432c0,13.2,10.8,24,24,24h336c13.2,0,24-10.8,24-24v-8h8  c22.1,0,40-17.9,40-40v-16H448z M80,40c0-4.4,3.6-8,8-8h336c4.4,0,8,3.6,8,8v368H128v16c0,13.3-10.7,24-24,24s-24-10.7-24-24V40z   M432,472c0,4.4-3.6,8-8,8H88c-4.4,0-8-3.6-8-8v-16c6.9,5.2,15.3,8,24,8h328V472z M456,448H136c5.2-6.9,8-15.3,8-24h336  C480,437.2,469.2,448,456,448z"/><path d="M408,128H104v192h304V128z M240,304H120V184h120V304z M240,168H120v-24h120V168z M320,304h-64V184h64V304z M320,168h-64v-24  h64V168z M392,304h-56V184h56V304z M392,168h-56v-24h56V168z"/><rect x="328" y="56" width="16" height="16"/><rect x="360" y="56" width="48" height="16"/><rect x="328" y="88" width="80" height="16"/><rect x="104" y="56" width="64" height="16"/><rect x="104" y="88" width="80" height="16"/><rect x="280" y="336" width="128" height="16"/><rect x="104" y="336" width="80" height="16"/><rect x="320" y="368" width="88" height="16"/><rect x="136" y="200" width="72" height="16"/><rect x="136" y="232" width="48" height="16"/><rect x="136" y="264" width="48" height="16"/><rect x="272" y="200" width="32" height="16"/><rect x="272" y="232" width="32" height="16"/><rect x="272" y="264" width="32" height="16"/><rect x="352" y="200" width="24" height="16"/><rect x="352" y="232" width="24" height="16"/><rect x="352" y="264" width="24" height="16"/><text x="0" y="527" fill="#000000" font-size="5px" font-weight="bold" font-family="'Helvetica Neue', Helvetica, Arial-Unicode, Arial, Sans-serif">Created by Wichai Wi</text><text x="0" y="532" fill="#000000" font-size="5px" font-weight="bold" font-family="'Helvetica Neue', Helvetica, Arial-Unicode, Arial, Sans-serif">from the Noun Project</text></svg>