<svg xmlns="http://www.w3.org/2000/svg" xmlns:xlink="http://www.w3.org/1999/xlink" version="1.1" x="0px" y="0px" viewBox="0 0 64 80" enable-background="new 0 0 64 64" xml:space="preserve"><g><path d="M57,37c0-1.6542969-1.3457031-3-3-3h-1V3c0-0.5522461-0.4477539-1-1-1H8C7.4477539,2,7,2.4477539,7,3v48   c0,0.5527344,0.4477539,1,1,1h9v9c0,0.5527344,0.4477539,1,1,1h28c0.5522461,0,1-0.4472656,1-1v-1h7c1.6542969,0,3-1.3457031,3-3   v-2c0-0.7711182-0.3005371-1.4680176-0.7802734-2C56.6994629,52.4680176,57,51.7711182,57,51v-2   c0-0.7711182-0.3005371-1.4680176-0.7802734-2C56.6994629,46.4680176,57,45.7711182,57,45v-2   c0-0.7711182-0.3005371-1.4680176-0.7802734-2C56.6994629,40.4680176,57,39.7711182,57,39V37z M55,37v2   c0,0.5517578-0.4487305,1-1,1h-7v-4h7C54.5512695,36,55,36.4482422,55,37z M55,43v2c0,0.5517578-0.4487305,1-1,1h-7v-4h7   C54.5512695,42,55,42.4482422,55,43z M55,49v2c0,0.5517578-0.4487305,1-1,1h-7v-4h7C54.5512695,48,55,48.4482422,55,49z M51,4v10H9   V4H51z M9,50V16h42v18h-4v-1c0-0.5522461-0.4477539-1-1-1H18c-0.5522461,0-1,0.4477539-1,1v17H9z M45,60H19V34h26v1v6v6v6v6V60z    M55,57c0,0.5517578-0.4487305,1-1,1h-7v-4h7c0.5512695,0,1,0.4482422,1,1V57z"/><path d="M23,39h16c0.5522461,0,1-0.4472656,1-1s-0.4477539-1-1-1H23c-0.5522461,0-1,0.4472656-1,1S22.4477539,39,23,39z"/><path d="M35,43H23c-0.5522461,0-1,0.4472656-1,1s0.4477539,1,1,1h12c0.5522461,0,1-0.4472656,1-1S35.5522461,43,35,43z"/><path d="M33,49H23c-0.5522461,0-1,0.4472656-1,1s0.4477539,1,1,1h10c0.5522461,0,1-0.4472656,1-1S33.5522461,49,33,49z"/><path d="M33,55H23c-0.5522461,0-1,0.4472656-1,1s0.4477539,1,1,1h10c0.5522461,0,1-0.4472656,1-1S33.5522461,55,33,55z"/><path d="M39,50c-0.5512695,0-1-0.4482422-1-1s0.4487305-1,1-1c0.246582,0,0.4829102,0.0898438,0.6660156,0.2539063   c0.4106445,0.3691406,1.0424805,0.3330078,1.4121094-0.0761719c0.3686523-0.4121094,0.3339844-1.0439453-0.0771484-1.4121094   C40.7070313,46.5016479,40.3655396,46.3068237,40,46.1773682V45c0-0.5527344-0.4477539-1-1-1s-1,0.4472656-1,1v1.1842651   C36.838501,46.5983887,36,47.6980591,36,49c0,1.6542969,1.3457031,3,3,3c0.5512695,0,1,0.4482422,1,1s-0.4487305,1-1,1   c-0.246582,0-0.4829102-0.0898438-0.6660156-0.2539063C37.921875,53.375,37.2900391,53.4121094,36.921875,53.8222656   c-0.3686523,0.4121094-0.3339844,1.0439453,0.0771484,1.4121094C37.2929688,55.4983521,37.6344604,55.6931763,38,55.8226318V57   c0,0.5527344,0.4477539,1,1,1s1-0.4472656,1-1v-1.1842651C41.161499,55.4016113,42,54.3019409,42,53   C42,51.3457031,40.6542969,50,39,50z"/><path d="M28,28v-8c0-0.5522461-0.4477539-1-1-1H13c-0.5522461,0-1,0.4477539-1,1v8c0,0.5522461,0.4477539,1,1,1h14   C27.5522461,29,28,28.5522461,28,28z M26,27H14v-6h12V27z"/><path d="M35,28h12c0.5522461,0,1-0.4477539,1-1v-6c0-0.5522461-0.4477539-1-1-1H35c-0.5522461,0-1,0.4477539-1,1v6   C34,27.5522461,34.4477539,28,35,28z M36,22h10v4H36V22z"/><path d="M14,12c1.6542969,0,3-1.3457031,3-3s-1.3457031-3-3-3s-3,1.3457031-3,3S12.3457031,12,14,12z M14,8   c0.5512695,0,1,0.4487305,1,1s-0.4487305,1-1,1s-1-0.4487305-1-1S13.4487305,8,14,8z"/><path d="M20,10h12c0.5522461,0,1-0.4477539,1-1s-0.4477539-1-1-1H20c-0.5522461,0-1,0.4477539-1,1S19.4477539,10,20,10z"/><path d="M35.0795898,9.3798828C35.0996094,9.4399414,35.1298828,9.5,35.1699219,9.5600586   C35.2099609,9.6098633,35.25,9.659668,35.2900391,9.7099609C35.4799805,9.8896484,35.7397461,10,36,10   c0.1298828,0,0.2597656-0.0302734,0.3798828-0.0800781c0.1298828-0.050293,0.2299805-0.1201172,0.3300781-0.2099609   C36.75,9.659668,36.7998047,9.6098633,36.8295898,9.5600586C36.8696289,9.5,36.8999023,9.4399414,36.9199219,9.3798828   c0.0297852-0.0600586,0.0498047-0.1201172,0.0600586-0.1801758C36.9897461,9.1298828,37,9.0698242,37,9   c0-0.1303711-0.0302734-0.2602539-0.0800781-0.3803711C36.8696289,8.5,36.7998047,8.3896484,36.7099609,8.2900391   c-0.1000977-0.090332-0.2001953-0.1601563-0.3300781-0.2104492c-0.3598633-0.159668-0.8100586-0.0698242-1.0898438,0.2104492   C35.199707,8.3896484,35.1298828,8.5,35.0795898,8.6196289C35.0297852,8.7397461,35,8.8696289,35,9   c0,0.0698242,0.0097656,0.1298828,0.0200195,0.199707C35.0297852,9.2597656,35.0498047,9.3198242,35.0795898,9.3798828z"/><path d="M39.0795898,9.3798828C39.0996094,9.4399414,39.1298828,9.5,39.1699219,9.5600586   C39.2099609,9.6098633,39.25,9.659668,39.2900391,9.7099609C39.4799805,9.8896484,39.7397461,10,40,10   c0.1298828,0,0.2597656-0.0302734,0.3798828-0.0800781c0.1298828-0.050293,0.2299805-0.1201172,0.3300781-0.2099609   C40.75,9.659668,40.7998047,9.6098633,40.8295898,9.5600586C40.8696289,9.5,40.8999023,9.4399414,40.9199219,9.3798828   c0.0297852-0.0600586,0.0498047-0.1201172,0.0600586-0.1801758C40.9897461,9.1298828,41,9.0698242,41,9   c0-0.1303711-0.0302734-0.2602539-0.0800781-0.3803711C40.8696289,8.5,40.7998047,8.3896484,40.7099609,8.2900391   c-0.1000977-0.090332-0.2001953-0.1601563-0.3300781-0.2104492c-0.3701172-0.159668-0.8100586-0.0698242-1.0898438,0.2104492   C39.199707,8.3896484,39.1298828,8.5,39.0795898,8.6196289C39.0297852,8.7397461,39,8.8696289,39,9   c0,0.0698242,0.0097656,0.1298828,0.0200195,0.199707C39.0297852,9.2597656,39.0498047,9.3198242,39.0795898,9.3798828z"/><path d="M43.0795898,9.3798828C43.0996094,9.4399414,43.1298828,9.5,43.1699219,9.5600586   C43.2099609,9.6098633,43.25,9.659668,43.2900391,9.7099609C43.3398438,9.75,43.3896484,9.7900391,43.4399414,9.8295898   C43.5,9.8696289,43.5600586,9.8999023,43.6196289,9.9199219c0.0600586,0.0297852,0.1201172,0.0498047,0.1801758,0.0600586   C43.8696289,9.9897461,43.9296875,10,44,10c0.1298828,0,0.2597656-0.0302734,0.3798828-0.0800781   C44.5,9.8696289,44.6098633,9.7998047,44.7099609,9.7099609C44.75,9.659668,44.7900391,9.6098633,44.8295898,9.5600586   C44.8696289,9.5,44.8999023,9.4399414,44.9199219,9.3798828c0.0297852-0.0600586,0.0498047-0.1201172,0.0600586-0.1801758   C44.9897461,9.1298828,45,9.0698242,45,9c0-0.1303711-0.0302734-0.2602539-0.0800781-0.3803711   C44.8696289,8.5,44.7998047,8.3896484,44.7099609,8.2900391C44.6098633,8.199707,44.5,8.1298828,44.3798828,8.0795898   C44.199707,8,44,7.9799805,43.7998047,8.0200195c-0.0600586,0.0097656-0.1201172,0.0297852-0.1801758,0.0595703   C43.5600586,8.0996094,43.5,8.1298828,43.4399414,8.1699219C43.3896484,8.2099609,43.3398438,8.25,43.2900391,8.2900391   C43.199707,8.3896484,43.1298828,8.5,43.0795898,8.6196289C43.0297852,8.7397461,43,8.8696289,43,9   c0,0.0698242,0.0097656,0.1298828,0.0200195,0.199707C43.0297852,9.2597656,43.0498047,9.3198242,43.0795898,9.3798828z"/></g><text x="0" y="79" fill="#000000" font-size="5px" font-weight="bold" font-family="'Helvetica Neue', Helvetica, Arial-Unicode, Arial, Sans-serif">Created by Asheeqa</text><text x="0" y="84" fill="#000000" font-size="5px" font-weight="bold" font-family="'Helvetica Neue', Helvetica, Arial-Unicode, Arial, Sans-serif">from the Noun Project</text></svg>